<?xml version="1.0" encoding="utf-8"?>
<!-- Generator: Adobe Illustrator 16.0.0, SVG Export Plug-In . SVG Version: 6.00 Build 0)  -->
<!DOCTYPE svg PUBLIC "-//W3C//DTD SVG 1.1//EN" "http://www.w3.org/Graphics/SVG/1.1/DTD/svg11.dtd">
<svg version="1.1" id="Layer_1" xmlns="http://www.w3.org/2000/svg" xmlns:xlink="http://www.w3.org/1999/xlink" x="0px" y="0px"
	 width="64px" height="64px" viewBox="0 0 64 64" style="enable-background:new 0 0 64 64;" xml:space="preserve">
<g>
	<g>
		<path style="fill:#f72f4b;" d="M48.074,3.729c-8.148,0-16.073,9.87-16.073,9.87s-7.926-9.87-16.074-9.87
			C7.778,3.729,0,7.843,0,19.959c0,8.601,8,16.155,8,16.155L12.2,40.34c1.957,0.739,5.855,1.157,11.381-3.236
			c1.341-1.066,3.302-2.765,6.19-5.68l-5.751-5.806l21.974-4.332l-4.295,22.189l-5.318-5.369c0,0-11.851,10.483-22.413,4.013
			l18.034,18.151l24-24.156c0,0,7.999-7.555,7.999-16.155C64,7.843,56.223,3.729,48.074,3.729z"/>
	</g>
</g>
</svg>
